<mxfile host="Electron" agent="Mozilla/5.0 (Macintosh; Intel Mac OS X 10_15_7) AppleWebKit/537.36 (KHTML, like Gecko) draw.io/28.0.4 Chrome/138.0.7204.97 Electron/37.2.1 Safari/537.36" version="28.0.4" pages="1">
  <diagram id="64ab0111fd6546f4" name="Hybrid Applications Graph Td">
    <mxGraphModel dx="706" dy="604" grid="1" gridSize="10" guides="1" tooltips="1" connect="1" arrows="1" fold="1" page="1" pageScale="1" pageWidth="827" pageHeight="1169" math="0" shadow="0">
      <root>
        <mxCell id="0" />
        <mxCell id="1" parent="0" />
        <UserObject label="" mermaidData="{&quot;data&quot;:&quot;graph TD\n    subgraph \&quot;OpenShift Cluster\&quot;\n        VM[\&quot;Virtual Machines\&quot;]\n        POD[\&quot;Containers\&quot;]\n        PAS[\&quot;PaaS Services\&quot;]\n    end\n\n    subgraph \&quot;Service Mesh\&quot;\n        CILIUM_GATEWAY[\&quot;Cilium Gateway\&quot;]\n        CILIUM_PROXY[\&quot;Cilium L7 Proxy\&quot;]\n    end\n\n    subgraph \&quot;Persistent Storage\&quot;\n        PVS[\&quot;PersistentVolume\&quot;]\n        PVCs[\&quot;PersistentVolumeClaim\&quot;]\n        ODF[\&quot;OpenShift Data Foundation\&quot;]\n    end\n\n    VM --&gt;|run| POD\n    POD --- PAS\n    POD --&gt;|L7 Policy| CILIUM_PROXY\n    CILIUM_PROXY --&gt;|Monitor| POD\n    CILIUM_GATEWAY --&gt;|Ingress| POD\n    VM --&gt;|Storage| ODF\n    POD --&gt;|Storage| PVCs\n    PVCs --&gt; PVS\n\n    style ODF fill:#f9f,stroke:#333\n    style CILIUM_GATEWAY fill:#ff9,stroke:#333&quot;}" id="9ad6211419f64900">
          <mxCell style="shape=image;noLabel=1;verticalAlign=top;imageAspect=1;image=data:image/svg+xml,PHN2ZyB3aWR0aD0iMjAwIiBoZWlnaHQ9IjIwMCIgeG1sbnM9Imh0dHA6Ly93d3cudzMub3JnLzIwMDAvc3ZnIj48cmVjdCB3aWR0aD0iMjAwIiBoZWlnaHQ9IjIwMCIgZmlsbD0iI2Y5ZjlmOSIgc3Ryb2tlPSIjY2NjIi8+PHRleHQgeD0iMTAwIiB5PSIxMDAiIHRleHQtYW5jaG9yPSJtaWRkbGUiIGZvbnQtZmFtaWx5PSJBcmlhbCIgZm9udC1zaXplPSIxNCIgZmlsbD0iIzMzMyI+TWVybWFpZCBEaWFncmFtPC90ZXh0Pjwvc3ZnPg==;" vertex="1" parent="1">
            <mxGeometry x="260" y="130" width="200" height="200" as="geometry" />
          </mxCell>
        </UserObject>
      </root>
    </mxGraphModel>
  </diagram>
</mxfile>